<?xml version="1.0" encoding="UTF-8" standalone="no"?>
<!DOCTYPE svg PUBLIC "-//W3C//DTD SVG 1.1//EN" "http://www.w3.org/Graphics/SVG/1.1/DTD/svg11.dtd">
<svg xmlns="http://www.w3.org/2000/svg" version="1.1" viewBox="0.00 0.00 331.00 270.00">
<g stroke-width="2.00" fill="none" stroke-linecap="butt">
<path stroke="#6b67cd" vector-effect="non-scaling-stroke" d="
  M 134.75 206.78
  L 132.22 204.16"
/>
<path stroke="#6b67cd" vector-effect="non-scaling-stroke" d="
  M 150.43 224.18
  L 152.72 226.70"
/>
<path stroke="#6b67cd" vector-effect="non-scaling-stroke" d="
  M 180.29 224.40
  L 183.06 221.32"
/>
<path stroke="#6b67cd" vector-effect="non-scaling-stroke" d="
  M 200.76 201.90
  L 196.47 206.52"
/>
<path stroke="#6b67cd" vector-effect="non-scaling-stroke" d="
  M 239.79 115.99
  L 235.43 115.88
  Q 234.89 115.86 234.89 115.33
  L 234.87 111.73"
/>
<path stroke="#6b67cd" vector-effect="non-scaling-stroke" d="
  M 234.78 100.62
  L 234.85 93.03"
/>
<path stroke="#6b67cd" vector-effect="non-scaling-stroke" d="
  M 234.81 75.48
  L 234.79 68.43"
/>
<path stroke="#6b67cd" vector-effect="non-scaling-stroke" d="
  M 234.83 57.10
  L 234.78 50.20"
/>
<path stroke="#6b67cd" vector-effect="non-scaling-stroke" d="
  M 226.00 34.75
  L 220.25 32.11"
/>
<path stroke="#6b67cd" vector-effect="non-scaling-stroke" d="
  M 204.98 26.13
  L 197.27 23.88"
/>
<path stroke="#6b67cd" vector-effect="non-scaling-stroke" d="
  M 111.50 31.27
  L 105.74 34.22"
/>
<path stroke="#6b67cd" vector-effect="non-scaling-stroke" d="
  M 96.55 39.04
  Q 95.58 47.62 96.13 56.72"
/>
<path stroke="#6b67cd" vector-effect="non-scaling-stroke" d="
  M 96.10 72.13
  L 96.05 79.25"
/>
<path stroke="#6b67cd" vector-effect="non-scaling-stroke" d="
  M 96.08 96.43
  L 96.07 101.49"
/>
<path stroke="#6b67cd" vector-effect="non-scaling-stroke" d="
  M 96.13 115.62
  Q 96.02 116.03 95.60 116.01"
/>
<path stroke="#7977a9" vector-effect="non-scaling-stroke" d="
  M 170.22 48.48
  Q 168.42 49.05 165.50 50.71
  Q 165.01 50.98 164.51 50.25"
/>
<path stroke="#7977a9" vector-effect="non-scaling-stroke" d="
  M 208.49 47.55
  Q 206.22 47.38 204.08 46.01
  Q 203.66 45.74 203.70 45.24
  Q 203.83 43.90 204.50 42.86
  Q 205.00 42.10 204.15 42.44
  L 202.49 43.11"
/>
<path stroke="#7977a9" vector-effect="non-scaling-stroke" d="
  M 193.72 43.12
  L 188.03 43.10"
/>
<path stroke="#7977a9" vector-effect="non-scaling-stroke" d="
  M 202.32 84.78
  Q 200.97 83.26 201.15 80.73
  Q 201.18 80.25 200.92 79.85
  L 197.37 74.38
  A 0.91 0.90 -46.7 0 0 195.82 74.43
  Q 195.09 75.72 195.41 76.81"
/>
<path stroke="#7977a9" vector-effect="non-scaling-stroke" d="
  M 196.73 90.43
  Q 200.43 95.39 201.18 101.42"
/>
<path stroke="#7977a9" vector-effect="non-scaling-stroke" d="
  M 138.00 113.22
  L 131.70 112.97"
/>
<path stroke="#7977a9" vector-effect="non-scaling-stroke" d="
  M 136.75 101.07
  Q 141.69 98.85 143.75 93.90"
/>
<path stroke="#7977a9" vector-effect="non-scaling-stroke" d="
  M 143.76 88.90
  Q 141.84 86.81 139.87 87.22
  Q 138.82 87.44 139.64 86.74
  Q 139.92 86.50 139.78 86.13
  Q 139.55 85.47 140.25 85.51
  L 140.77 85.53
  A 0.63 0.62 -6.9 0 0 141.40 84.73
  L 141.25 84.25
  Q 141.01 83.44 141.79 83.13
  Q 142.64 82.80 143.04 82.15
  Q 144.07 80.49 142.14 80.78
  Q 141.32 80.90 140.58 80.91
  Q 140.46 80.91 140.37 80.83
  Q 140.20 80.69 140.45 80.33
  A 0.33 0.33 0.0 0 1 140.69 80.20
  Q 142.45 80.15 143.33 79.03
  A 0.61 0.61 0.0 0 0 143.22 78.16
  Q 142.72 77.79 142.11 77.61
  A 0.83 0.81 -2.8 0 1 141.57 77.13
  L 140.53 74.51
  Q 140.38 74.14 139.99 74.17
  Q 139.68 74.19 139.47 73.92
  Q 139.19 73.57 139.63 73.67
  Q 142.38 74.26 143.16 72.84"
/>
<path stroke="#7977a9" vector-effect="non-scaling-stroke" d="
  M 157.58 57.65
  Q 161.11 54.50 165.63 52.76
  Q 166.09 52.58 165.72 52.25
  L 164.49 51.14"
/>
<path stroke="#7977a9" vector-effect="non-scaling-stroke" d="
  M 105.74 123.48
  L 99.75 123.49"
/>
<path stroke="#7977a9" vector-effect="non-scaling-stroke" d="
  M 170.24 123.44
  L 164.43 123.41"
/>
<path stroke="#7977a9" vector-effect="non-scaling-stroke" d="
  M 202.49 123.47
  L 196.78 123.44"
/>
<path stroke="#7977a9" vector-effect="non-scaling-stroke" d="
  M 240.66 123.48
  L 235.00 123.46"
/>
<path stroke="#7977a9" vector-effect="non-scaling-stroke" d="
  M 226.04 123.46
  L 220.18 123.46"
/>
<path stroke="#7977a9" vector-effect="non-scaling-stroke" d="
  M 138.00 123.48
  L 132.24 123.49"
/>
<path stroke="#9290c2" vector-effect="non-scaling-stroke" d="
  M 215.06 160.04
  L 215.05 168.48
  Q 215.05 169.24 214.47 169.73
  Q 211.00 172.63 206.60 171.88
  C 200.75 170.89 198.67 164.70 198.51 159.27
  Q 198.31 152.65 198.85 147.28
  C 199.38 141.93 203.61 136.39 209.71 138.39
  Q 214.44 139.94 215.06 146.00
  Q 215.09 146.23 215.32 146.23
  L 219.25 146.23
  Q 219.49 146.23 219.47 146.00
  Q 218.49 134.44 207.95 133.54
  C 200.15 132.88 194.91 139.99 194.29 147.09
  Q 193.73 153.57 194.08 160.72
  C 194.53 169.85 200.21 177.64 210.19 176.35
  Q 215.99 175.60 219.25 170.88
  A 1.88 1.86 -27.9 0 0 219.58 169.82
  L 219.59 155.55
  Q 219.59 155.00 219.04 155.00
  L 208.00 155.00
  A 0.25 0.24 -90.0 0 0 207.76 155.25
  L 207.75 159.25
  Q 207.75 159.50 208.00 159.50
  L 214.52 159.50
  Q 215.06 159.50 215.06 160.04"
/>
<path stroke="#9290c2" vector-effect="non-scaling-stroke" d="
  M 128.20 152.99
  Q 133.08 149.97 132.64 144.07
  Q 131.89 134.13 121.41 134.03
  Q 116.26 133.98 111.35 133.98
  Q 110.62 133.98 110.62 134.71
  L 110.62 175.45
  Q 110.62 175.93 111.10 175.94
  Q 120.57 176.23 124.90 175.78
  C 133.93 174.82 135.72 164.53 132.58 157.70
  Q 131.25 154.80 128.26 153.62
  Q 127.60 153.36 128.20 152.99"
/>
<path stroke="#9290c2" vector-effect="non-scaling-stroke" d="
  M 152.87 134.42
  L 152.87 175.56
  A 0.52 0.52 0.0 0 0 153.39 176.08
  L 162.85 176.08
  A 16.64 14.76 90.0 0 0 177.61 159.44
  L 177.61 150.54
  A 16.64 14.76 -90.0 0 0 162.85 133.90
  L 153.39 133.90
  A 0.52 0.52 0.0 0 0 152.87 134.42"
/>
<path stroke="#9290c2" vector-effect="non-scaling-stroke" d="
  M 77.58 160.72
  Q 77.05 160.62 77.53 160.37
  L 91.39 153.14
  Q 91.65 153.01 91.64 152.72
  L 91.57 147.49
  Q 91.56 147.19 91.31 147.34
  L 74.44 157.22
  A 3.58 3.58 0.0 0 0 74.44 163.40
  L 91.39 173.33
  A 0.14 0.13 15.7 0 0 91.60 173.22
  L 91.60 167.80
  Q 91.60 167.65 91.47 167.57
  Q 85.23 164.30 79.00 161.19
  Q 78.34 160.86 77.58 160.72"
/>
<path stroke="#9290c2" vector-effect="non-scaling-stroke" d="
  M 253.10 160.68
  Q 252.42 160.73 251.83 161.02
  Q 245.28 164.30 238.59 167.67
  Q 238.37 167.78 238.37 168.02
  L 238.39 173.22
  A 0.14 0.13 75.7 0 0 238.59 173.34
  L 257.43 162.81
  Q 258.01 162.48 258.01 161.82
  L 258.01 158.68
  Q 258.00 158.13 257.53 157.87
  L 238.60 147.29
  A 0.15 0.15 0.0 0 0 238.37 147.42
  L 238.36 152.56
  Q 238.36 152.85 238.62 152.97
  L 253.20 160.15
  Q 254.14 160.61 253.10 160.68"
/>
<path stroke="#9290c2" vector-effect="non-scaling-stroke" d="
  M 15.96 157.11
  L 18.35 161.00"
/>
<path stroke="#9290c2" vector-effect="non-scaling-stroke" d="
  M 19.21 162.21
  Q 19.42 162.86 20.21 163.50"
/>
<path stroke="#9290c2" vector-effect="non-scaling-stroke" d="
  M 22.18 175.66
  Q 21.29 176.41 21.20 177.26"
/>
<path stroke="#9290c2" vector-effect="non-scaling-stroke" d="
  M 18.73 180.87
  Q 17.41 182.25 16.68 183.89"
/>
<path stroke="#9290c2" vector-effect="non-scaling-stroke" d="
  M 19.27 187.70
  Q 20.13 187.94 21.22 187.64"
/>
<path stroke="#9290c2" vector-effect="non-scaling-stroke" d="
  M 30.85 187.53
  Q 31.78 187.77 32.72 187.63"
/>
<path stroke="#9290c2" vector-effect="non-scaling-stroke" d="
  M 42.06 187.62
  Q 43.03 187.82 44.20 187.60"
/>
<path stroke="#9290c2" vector-effect="non-scaling-stroke" d="
  M 53.46 187.64
  L 55.71 187.61"
/>
<path stroke="#7977a9" vector-effect="non-scaling-stroke" d="
  M 62.08 187.60
  Q 62.89 188.13 63.96 187.59"
/>
<path stroke="#7977a9" vector-effect="non-scaling-stroke" d="
  M 66.17 181.67
  Q 66.51 180.96 66.18 180.30"
/>
<path stroke="#9290c2" vector-effect="non-scaling-stroke" d="
  M 66.03 176.89
  Q 66.59 176.05 66.24 175.29"
/>
<path stroke="#9290c2" vector-effect="non-scaling-stroke" d="
  M 66.13 168.03
  Q 66.31 167.35 66.18 166.73"
/>
<path stroke="#7977a9" vector-effect="non-scaling-stroke" d="
  M 66.11 163.46
  Q 66.55 162.56 66.11 161.96"
/>
<path stroke="#7977a9" vector-effect="non-scaling-stroke" d="
  M 65.89 154.36
  L 62.33 154.38"
/>
<path stroke="#9290c2" vector-effect="non-scaling-stroke" d="
  M 57.31 154.38
  L 50.87 154.37"
/>
<path stroke="#9290c2" vector-effect="non-scaling-stroke" d="
  M 44.18 154.48
  Q 42.83 154.13 41.11 154.36"
/>
<path stroke="#9290c2" vector-effect="non-scaling-stroke" d="
  M 32.72 154.36
  L 29.56 154.34"
/>
<path stroke="#9290c2" vector-effect="non-scaling-stroke" d="
  M 22.87 154.35
  L 16.69 154.34"
/>
<path stroke="#9290c2" vector-effect="non-scaling-stroke" d="
  M 277.73 154.38
  L 274.54 154.36"
/>
<path stroke="#7977a9" vector-effect="non-scaling-stroke" d="
  M 267.88 154.35
  Q 266.02 154.03 265.93 154.66"
/>
<path stroke="#7977a9" vector-effect="non-scaling-stroke" d="
  M 265.92 161.85
  Q 265.59 162.45 265.75 163.45"
/>
<path stroke="#7977a9" vector-effect="non-scaling-stroke" d="
  M 265.69 166.76
  L 265.76 177.23"
/>
<path stroke="#7977a9" vector-effect="non-scaling-stroke" d="
  M 265.84 180.09
  L 265.52 186.24
  Q 265.49 186.84 264.89 186.86
  Q 264.62 186.87 264.47 187.16
  Q 264.24 187.63 264.74 187.78
  Q 265.41 187.99 266.15 187.68"
/>
<path stroke="#7977a9" vector-effect="non-scaling-stroke" d="
  M 275.51 187.71
  L 277.68 187.65"
/>
<path stroke="#9290c2" vector-effect="non-scaling-stroke" d="
  M 287.06 187.62
  Q 288.02 187.85 288.95 187.64"
/>
<path stroke="#7977a9" vector-effect="non-scaling-stroke" d="
  M 298.51 187.69
  Q 299.62 187.86 300.46 187.59"
/>
<path stroke="#9290c2" vector-effect="non-scaling-stroke" d="
  M 306.96 187.46
  Q 307.60 187.90 309.01 187.65"
/>
<path stroke="#9290c2" vector-effect="non-scaling-stroke" d="
  M 312.08 187.55
  Q 312.94 188.10 314.00 187.65"
/>
<path stroke="#9290c2" vector-effect="non-scaling-stroke" d="
  M 313.98 183.42
  Q 313.06 181.56 311.78 180.33"
/>
<path stroke="#9290c2" vector-effect="non-scaling-stroke" d="
  M 309.71 176.99
  L 306.87 173.09"
/>
<path stroke="#9290c2" vector-effect="non-scaling-stroke" d="
  M 310.69 163.45
  L 313.97 158.62"
/>
<path stroke="#9290c2" vector-effect="non-scaling-stroke" d="
  M 313.56 154.43
  L 307.25 154.41"
/>
<path stroke="#9290c2" vector-effect="non-scaling-stroke" d="
  M 302.21 154.36
  L 295.84 154.30"
/>
<path stroke="#9290c2" vector-effect="non-scaling-stroke" d="
  M 288.97 154.28
  L 286.06 154.33"
/>
<path stroke="#9290c2" vector-effect="non-scaling-stroke" d="
  M 115.16 138.90
  L 115.18 151.16
  A 0.38 0.38 0.0 0 0 115.56 151.54
  L 122.38 151.53
  A 5.92 5.80 89.9 0 0 128.17 145.60
  L 128.17 144.42
  A 5.92 5.80 89.9 0 0 122.36 138.51
  L 115.54 138.52
  A 0.38 0.38 0.0 0 0 115.16 138.90"
/>
<path stroke="#9290c2" vector-effect="non-scaling-stroke" d="
  M 115.17 156.39
  L 115.17 171.09
  A 0.44 0.44 0.0 0 0 115.61 171.53
  L 123.22 171.53
  A 6.48 6.25 -90.0 0 0 129.47 165.05
  L 129.47 162.43
  A 6.48 6.25 90.0 0 0 123.22 155.95
  L 115.61 155.95
  A 0.44 0.44 0.0 0 0 115.17 156.39"
/>
<path stroke="#9290c2" vector-effect="non-scaling-stroke" d="
  M 157.43 138.94
  L 157.43 171.06
  A 0.53 0.53 0.0 0 0 157.96 171.59
  L 162.85 171.59
  A 12.30 10.24 90.0 0 0 173.09 159.29
  L 173.09 150.71
  A 12.30 10.24 90.0 0 0 162.85 138.41
  L 157.96 138.41
  A 0.53 0.53 0.0 0 0 157.43 138.94"
/>
</g>
<path fill="#0900cd" d="
  M 157.11 0.00
  L 169.26 0.00
  Q 213.49 2.35 250.39 26.64
  Q 251.84 27.60 253.35 28.69
  Q 253.76 28.99 253.76 29.51
  L 253.76 115.47
  A 0.54 0.54 0.0 0 1 253.22 116.01
  L 239.79 115.99
  L 235.43 115.88
  Q 234.89 115.86 234.89 115.33
  L 234.87 111.73
  L 234.78 100.62
  L 234.85 93.03
  L 234.81 75.48
  L 234.79 68.43
  L 234.83 57.10
  L 234.78 50.20
  L 234.77 39.99
  Q 234.77 39.47 234.31 39.22
  L 226.00 34.75
  L 220.25 32.11
  Q 212.93 28.35 204.98 26.13
  L 197.27 23.88
  Q 162.67 14.71 128.74 24.76
  Q 123.83 26.21 111.50 31.27
  L 105.74 34.22
  L 96.55 39.04
  Q 95.58 47.62 96.13 56.72
  L 96.10 72.13
  L 96.05 79.25
  L 96.08 96.43
  L 96.07 101.49
  L 96.13 115.62
  Q 96.02 116.03 95.60 116.01
  L 77.73 115.89
  Q 77.17 115.88 77.17 115.33
  L 77.17 29.42
  A 0.74 0.74 0.0 0 1 77.48 28.82
  Q 113.38 3.27 157.11 0.00
  Z"
/>
<path fill="#cdcdcd" d="
  M 131.60 32.65
  L 128.54 35.17
  Q 126.53 36.83 124.33 35.43
  Q 124.00 35.22 123.79 34.89
  Q 122.73 33.20 124.26 31.93
  L 133.10 24.64
  A 3.00 2.99 70.3 0 1 138.00 26.96
  L 138.00 52.49
  Q 138.00 53.07 138.58 53.03
  C 140.40 52.90 143.49 52.80 143.74 55.26
  A 2.27 2.26 -2.9 0 1 141.48 57.75
  L 126.67 57.75
  Q 124.47 57.75 123.41 55.81
  Q 123.18 55.39 123.33 54.99
  Q 123.98 53.30 125.66 53.13
  Q 128.49 52.84 131.58 53.08
  Q 132.25 53.13 132.25 52.45
  L 132.25 32.96
  Q 132.25 32.11 131.60 32.65
  Z"
/>
<path fill="#cdcdcd" d="
  M 170.22 48.48
  Q 168.42 49.05 165.50 50.71
  Q 165.01 50.98 164.51 50.25
  L 164.48 32.95
  Q 164.48 32.18 163.89 32.67
  L 160.89 35.14
  Q 158.98 36.72 156.71 35.54
  Q 156.36 35.36 156.16 35.02
  Q 155.05 33.18 156.71 31.81
  L 165.50 24.57
  A 2.88 2.88 0.0 0 1 170.21 26.79
  L 170.22 48.48
  Z"
/>
<path fill="#cdcdcd" d="
  M 197.27 23.88
  L 204.98 26.13
  Q 208.46 28.97 208.48 33.25
  Q 208.51 40.27 208.49 47.55
  Q 206.22 47.38 204.08 46.01
  Q 203.66 45.74 203.70 45.24
  Q 203.83 43.90 204.50 42.86
  Q 205.00 42.10 204.15 42.44
  L 202.49 43.11
  Q 202.51 37.68 202.51 33.17
  Q 202.51 28.97 198.21 28.92
  C 195.33 28.88 193.74 30.57 193.75 33.35
  Q 193.76 38.28 193.72 43.12
  L 188.03 43.10
  Q 187.96 38.92 188.00 34.91
  Q 188.05 30.02 189.61 27.97
  Q 191.98 24.84 197.27 23.88
  Z"
/>
<path fill="#cdcdcd" d="
  M 111.50 31.27
  Q 111.49 40.76 111.52 49.76
  Q 111.53 52.81 108.28 55.27
  Q 102.78 59.43 96.13 56.72
  Q 95.58 47.62 96.55 39.04
  Q 97.21 43.54 97.07 48.30
  Q 96.99 51.03 98.08 51.92
  C 99.97 53.46 103.48 53.45 105.02 51.32
  Q 105.70 50.38 105.72 48.45
  Q 105.79 41.48 105.74 34.22
  L 111.50 31.27
  Z"
/>
<path fill="#cdcdcd" d="
  M 220.25 32.11
  L 226.00 34.75
  Q 225.99 41.14 226.01 47.43
  C 226.02 50.58 226.58 52.66 230.00 52.96
  Q 233.53 53.26 234.78 50.20
  L 234.83 57.10
  Q 228.91 58.92 224.36 56.17
  Q 219.96 53.52 220.08 48.00
  Q 220.25 40.06 220.25 32.11
  Z"
/>
<path fill="#242085" d="
  M 208.49 47.55
  Q 211.92 47.84 215.06 46.47
  Q 215.90 46.10 215.59 46.97
  C 214.97 48.65 212.93 49.78 211.37 50.50
  Q 209.06 51.57 209.83 53.99
  C 210.69 56.70 211.74 59.76 211.04 62.57
  Q 210.70 63.96 210.75 65.42
  C 210.90 70.09 212.13 74.47 213.19 79.00
  A 1.35 1.34 -26.8 0 1 212.75 80.32
  Q 211.65 81.27 212.62 82.32
  A 0.60 0.60 0.0 0 1 212.54 83.21
  Q 211.78 83.80 210.82 84.07
  A 0.88 0.87 -14.7 0 0 210.20 85.12
  Q 210.25 85.30 210.22 85.48
  Q 210.17 85.95 209.69 85.98
  Q 205.84 86.25 202.32 84.78
  Q 200.97 83.26 201.15 80.73
  Q 201.18 80.25 200.92 79.85
  L 197.37 74.38
  A 0.91 0.90 -46.7 0 0 195.82 74.43
  Q 195.09 75.72 195.41 76.81
  Q 194.87 77.73 194.81 78.25
  Q 194.15 84.77 196.73 90.43
  Q 200.43 95.39 201.18 101.42
  Q 201.22 106.40 199.02 110.55
  A 0.91 0.91 0.0 0 1 197.86 110.96
  Q 178.22 102.47 157.86 107.12
  Q 155.78 107.60 148.32 110.40
  Q 143.26 112.30 138.00 113.22
  L 131.70 112.97
  Q 121.17 110.38 116.34 99.42
  Q 115.99 98.63 116.77 99.02
  C 122.62 101.96 130.50 103.74 136.75 101.07
  Q 141.69 98.85 143.75 93.90
  Q 145.59 91.28 148.78 89.61
  A 0.32 0.30 -22.0 0 0 148.94 89.26
  Q 148.90 89.12 148.78 89.06
  Q 148.17 88.71 147.78 89.29
  Q 147.63 89.51 147.46 89.33
  Q 147.08 88.92 146.58 89.16
  Q 144.97 89.92 143.76 88.90
  Q 141.84 86.81 139.87 87.22
  Q 138.82 87.44 139.64 86.74
  Q 139.92 86.50 139.78 86.13
  Q 139.55 85.47 140.25 85.51
  L 140.77 85.53
  A 0.63 0.62 -6.9 0 0 141.40 84.73
  L 141.25 84.25
  Q 141.01 83.44 141.79 83.13
  Q 142.64 82.80 143.04 82.15
  Q 144.07 80.49 142.14 80.78
  Q 141.32 80.90 140.58 80.91
  Q 140.46 80.91 140.37 80.83
  Q 140.20 80.69 140.45 80.33
  A 0.33 0.33 0.0 0 1 140.69 80.20
  Q 142.45 80.15 143.33 79.03
  A 0.61 0.61 0.0 0 0 143.22 78.16
  Q 142.72 77.79 142.11 77.61
  A 0.83 0.81 -2.8 0 1 141.57 77.13
  L 140.53 74.51
  Q 140.38 74.14 139.99 74.17
  Q 139.68 74.19 139.47 73.92
  Q 139.19 73.57 139.63 73.67
  Q 142.38 74.26 143.16 72.84
  L 148.27 69.08
  Q 148.32 69.04 148.34 68.98
  Q 148.38 68.85 148.38 68.72
  Q 148.38 68.58 148.25 68.63
  Q 147.24 68.97 146.02 68.77
  Q 144.89 68.57 146.01 68.34
  L 147.26 68.07
  A 0.59 0.59 0.0 0 0 147.71 67.34
  Q 147.58 66.85 147.95 66.49
  Q 148.53 65.94 148.40 66.73
  Q 148.36 66.98 148.46 67.21
  A 0.31 0.31 0.0 0 0 148.95 67.32
  Q 149.12 67.17 149.19 66.96
  Q 149.32 66.53 149.04 66.17
  Q 147.81 64.62 146.04 64.57
  Q 145.58 64.55 145.78 64.14
  Q 146.15 63.37 145.45 62.73
  Q 144.69 62.03 145.72 62.04
  C 146.58 62.05 147.49 62.48 148.29 62.04
  Q 148.62 61.86 148.70 61.52
  A 0.43 0.43 0.0 0 0 148.26 60.99
  Q 147.98 61.00 147.85 60.73
  Q 147.62 60.24 148.11 60.48
  Q 148.97 60.92 149.67 60.38
  Q 150.22 59.95 150.91 59.72
  Q 153.99 58.67 157.58 57.65
  Q 161.11 54.50 165.63 52.76
  Q 166.09 52.58 165.72 52.25
  L 164.49 51.14
  Q 164.08 51.25 164.23 50.51
  Q 164.28 50.25 164.51 50.25
  Q 165.01 50.98 165.50 50.71
  Q 168.42 49.05 170.22 48.48
  Q 178.73 44.17 188.03 43.10
  L 193.72 43.12
  L 200.40 44.64
  Q 200.88 44.75 201.30 44.49
  Q 202.09 44.01 202.49 43.11
  L 204.15 42.44
  Q 205.00 42.10 204.50 42.86
  Q 203.83 43.90 203.70 45.24
  Q 203.66 45.74 204.08 46.01
  Q 206.22 47.38 208.49 47.55
  Z"
/>
<path fill="#cdcdcd" d="
  M 157.58 57.65
  C 154.42 56.44 155.53 53.30 158.32 53.09
  Q 160.98 52.90 163.76 53.04
  Q 164.33 53.07 164.50 52.52
  Q 164.68 51.97 164.49 51.14
  L 165.72 52.25
  Q 166.09 52.58 165.63 52.76
  Q 161.11 54.50 157.58 57.65
  Z"
/>
<path fill="#cdcdcd" d="
  M 96.07 101.49
  L 96.08 96.43
  L 99.13 96.47
  Q 99.75 96.47 99.75 95.85
  L 99.75 76.77
  Q 99.75 76.23 99.26 76.46
  Q 97.37 77.37 96.05 79.25
  L 96.10 72.13
  C 97.78 70.69 100.66 67.74 102.69 67.63
  C 104.84 67.50 105.76 69.27 105.76 71.29
  Q 105.74 83.38 105.76 95.98
  Q 105.77 96.69 106.47 96.57
  Q 108.90 96.14 110.65 97.33
  A 2.00 2.00 0.0 0 1 110.66 100.63
  Q 109.05 101.74 107.00 101.67
  Q 101.58 101.51 96.07 101.49
  Z"
/>
<path fill="#cdcdcd" d="
  M 143.16 72.84
  Q 142.38 74.26 139.63 73.67
  Q 139.19 73.57 139.47 73.92
  Q 139.68 74.19 139.99 74.17
  Q 140.38 74.14 140.53 74.51
  L 141.57 77.13
  A 0.83 0.81 -2.8 0 0 142.11 77.61
  Q 142.72 77.79 143.22 78.16
  A 0.61 0.61 0.0 0 1 143.33 79.03
  Q 142.45 80.15 140.69 80.20
  A 0.33 0.33 0.0 0 0 140.45 80.33
  Q 140.20 80.69 140.37 80.83
  Q 140.46 80.91 140.58 80.91
  Q 141.32 80.90 142.14 80.78
  Q 144.07 80.49 143.04 82.15
  Q 142.64 82.80 141.79 83.13
  Q 141.01 83.44 141.25 84.25
  L 141.40 84.73
  A 0.63 0.62 -6.9 0 1 140.77 85.53
  L 140.25 85.51
  Q 139.55 85.47 139.78 86.13
  Q 139.92 86.50 139.64 86.74
  Q 138.82 87.44 139.87 87.22
  Q 141.84 86.81 143.76 88.90
  L 143.75 93.90
  Q 141.69 98.85 136.75 101.07
  Q 132.94 101.81 129.54 100.62
  C 124.24 98.77 123.03 94.87 123.18 89.39
  Q 123.33 83.51 123.25 78.23
  Q 123.11 69.50 131.12 67.90
  Q 138.78 66.37 143.16 72.84
  Z
  M 137.9713 76.2748
  A 3.77 3.77 0.0 0 0 134.1881 72.5179
  L 132.9682 72.5222
  A 3.77 3.77 0.0 0 0 129.2113 76.3053
  L 129.2687 92.7452
  A 3.77 3.77 0.0 0 0 133.0519 96.5021
  L 134.2718 96.4978
  A 3.77 3.77 0.0 0 0 138.0287 92.7147
  L 137.9713 76.2748
  Z"
/>
<path fill="#cdcdcd" d="
  M 234.79 68.43
  L 234.81 75.48
  C 233.11 70.87 226.04 71.57 226.03 76.79
  Q 226.01 83.67 225.96 91.73
  C 225.93 95.10 227.96 96.98 231.51 96.42
  Q 234.32 95.97 234.85 93.03
  L 234.78 100.62
  Q 229.78 102.29 225.49 100.32
  C 222.06 98.74 220.18 95.78 220.21 92.00
  Q 220.29 83.87 220.25 76.55
  Q 220.22 72.24 223.96 69.72
  Q 228.95 66.35 234.79 68.43
  Z"
/>
<path fill="#cdcdcd" d="
  M 202.32 84.78
  L 202.49 95.98
  A 0.56 0.56 0.0 0 0 203.08 96.53
  C 205.11 96.42 207.50 96.41 208.44 98.58
  Q 208.64 99.06 208.39 99.51
  C 206.86 102.19 203.83 101.59 201.18 101.42
  Q 200.43 95.39 196.73 90.43
  L 196.79 77.04
  Q 196.80 75.86 195.82 76.53
  L 195.41 76.81
  Q 195.09 75.72 195.82 74.43
  A 0.91 0.90 -46.7 0 1 197.37 74.38
  L 200.92 79.85
  Q 201.18 80.25 201.15 80.73
  Q 200.97 83.26 202.32 84.78
  Z"
/>
<path fill="#cdcdcd" d="
  M 105.74 123.48
  L 99.75 123.49
  L 99.65 120.23
  Q 99.63 119.52 99.08 119.97
  L 96.42 122.18
  A 2.54 2.47 17.4 0 1 95.39 122.70
  Q 92.46 123.41 91.52 122.09
  Q 90.50 120.65 91.81 119.46
  L 95.60 116.01
  Q 96.02 116.03 96.13 115.62
  C 97.96 114.07 100.79 111.12 103.15 111.16
  Q 105.80 111.21 105.78 114.24
  Q 105.74 118.79 105.74 123.48
  Z"
/>
<path fill="#cdcdcd" d="
  M 170.24 123.44
  L 164.43 123.41
  L 164.44 119.81
  A 0.26 0.25 -22.5 0 0 164.00 119.63
  Q 162.25 121.38 160.22 122.70
  Q 158.12 124.07 156.34 122.30
  Q 156.18 122.14 156.07 121.93
  Q 155.16 120.21 156.66 118.97
  L 165.46 111.76
  A 2.92 2.92 0.0 0 1 170.23 114.02
  L 170.24 123.44
  Z"
/>
<path fill="#cdcdcd" d="
  M 202.49 123.47
  L 196.78 123.44
  L 196.71 119.94
  A 0.29 0.29 0.0 0 0 196.23 119.72
  L 193.45 122.10
  Q 191.55 123.72 189.27 122.71
  Q 188.31 122.29 187.95 121.17
  A 1.63 1.63 0.0 0 1 188.46 119.40
  L 197.85 111.67
  A 2.82 2.82 0.0 0 1 202.47 113.84
  L 202.49 123.47
  Z"
/>
<path fill="#cdcdcd" d="
  M 234.87 111.73
  L 234.89 115.33
  Q 234.89 115.86 235.43 115.88
  L 239.79 115.99
  Q 241.19 119.41 240.66 123.48
  L 235.00 123.46
  C 235.19 119.99 235.13 116.73 231.52 116.09
  Q 227.76 115.42 226.23 118.73
  Q 225.74 119.78 226.04 123.46
  L 220.18 123.46
  Q 219.43 109.16 234.87 111.73
  Z"
/>
<path fill="#cdcdcd" d="
  M 131.70 112.97
  L 138.00 113.22
  L 138.00 123.48
  L 132.24 123.49
  L 132.14 120.01
  Q 132.12 119.39 131.63 119.79
  L 128.48 122.38
  A 3.13 3.11 24.9 0 1 126.58 123.07
  Q 124.43 123.12 123.72 121.79
  Q 122.92 120.31 124.21 119.23
  L 131.70 112.97
  Z"
/>
<path fill="#242085" d="
  M 99.75 123.49
  L 105.74 123.48
  L 132.24 123.49
  L 138.00 123.48
  L 164.43 123.41
  L 170.24 123.44
  L 196.78 123.44
  L 202.49 123.47
  L 220.18 123.46
  L 226.04 123.46
  L 235.00 123.46
  L 240.66 123.48
  L 264.98 123.48
  A 0.65 0.65 0.0 0 1 265.63 124.13
  L 265.62 146.19
  Q 265.62 146.75 266.19 146.75
  L 330.15 146.75
  Q 330.87 146.75 330.47 147.34
  L 314.89 170.40
  A 1.05 1.04 -45.3 0 0 314.89 171.59
  L 330.65 194.63
  A 0.24 0.24 0.0 0 1 330.45 195.00
  L 257.22 195.00
  Q 256.69 195.00 256.69 194.47
  L 256.70 187.23
  Q 256.70 186.75 256.23 186.75
  L 74.75 186.75
  Q 74.25 186.75 74.25 187.25
  L 74.25 194.50
  Q 74.26 195.00 73.75 195.00
  L 0.55 195.00
  A 0.29 0.29 0.0 0 1 0.31 194.55
  L 16.14 171.40
  A 0.69 0.69 0.0 0 0 16.14 170.62
  L 0.43 147.33
  Q 0.04 146.75 0.74 146.75
  L 65.77 146.75
  Q 66.30 146.75 66.30 146.23
  L 66.30 124.05
  Q 66.30 123.57 66.78 123.57
  L 99.75 123.49
  Z
  M 215.06 160.04
  L 215.05 168.48
  Q 215.05 169.24 214.47 169.73
  Q 211.00 172.63 206.60 171.88
  C 200.75 170.89 198.67 164.70 198.51 159.27
  Q 198.31 152.65 198.85 147.28
  C 199.38 141.93 203.61 136.39 209.71 138.39
  Q 214.44 139.94 215.06 146.00
  Q 215.09 146.23 215.32 146.23
  L 219.25 146.23
  Q 219.49 146.23 219.47 146.00
  Q 218.49 134.44 207.95 133.54
  C 200.15 132.88 194.91 139.99 194.29 147.09
  Q 193.73 153.57 194.08 160.72
  C 194.53 169.85 200.21 177.64 210.19 176.35
  Q 215.99 175.60 219.25 170.88
  A 1.88 1.86 -27.9 0 0 219.58 169.82
  L 219.59 155.55
  Q 219.59 155.00 219.04 155.00
  L 208.00 155.00
  A 0.25 0.24 -90.0 0 0 207.76 155.25
  L 207.75 159.25
  Q 207.75 159.50 208.00 159.50
  L 214.52 159.50
  Q 215.06 159.50 215.06 160.04
  Z
  M 128.20 152.99
  Q 133.08 149.97 132.64 144.07
  Q 131.89 134.13 121.41 134.03
  Q 116.26 133.98 111.35 133.98
  Q 110.62 133.98 110.62 134.71
  L 110.62 175.45
  Q 110.62 175.93 111.10 175.94
  Q 120.57 176.23 124.90 175.78
  C 133.93 174.82 135.72 164.53 132.58 157.70
  Q 131.25 154.80 128.26 153.62
  Q 127.60 153.36 128.20 152.99
  Z
  M 152.87 134.42
  L 152.87 175.56
  A 0.52 0.52 0.0 0 0 153.39 176.08
  L 162.85 176.08
  A 16.64 14.76 90.0 0 0 177.61 159.44
  L 177.61 150.54
  A 16.64 14.76 -90.0 0 0 162.85 133.90
  L 153.39 133.90
  A 0.52 0.52 0.0 0 0 152.87 134.42
  Z
  M 77.58 160.72
  Q 77.05 160.62 77.53 160.37
  L 91.39 153.14
  Q 91.65 153.01 91.64 152.72
  L 91.57 147.49
  Q 91.56 147.19 91.31 147.34
  L 74.44 157.22
  A 3.58 3.58 0.0 0 0 74.44 163.40
  L 91.39 173.33
  A 0.14 0.13 15.7 0 0 91.60 173.22
  L 91.60 167.80
  Q 91.60 167.65 91.47 167.57
  Q 85.23 164.30 79.00 161.19
  Q 78.34 160.86 77.58 160.72
  Z
  M 253.10 160.68
  Q 252.42 160.73 251.83 161.02
  Q 245.28 164.30 238.59 167.67
  Q 238.37 167.78 238.37 168.02
  L 238.39 173.22
  A 0.14 0.13 75.7 0 0 238.59 173.34
  L 257.43 162.81
  Q 258.01 162.48 258.01 161.82
  L 258.01 158.68
  Q 258.00 158.13 257.53 157.87
  L 238.60 147.29
  A 0.15 0.15 0.0 0 0 238.37 147.42
  L 238.36 152.56
  Q 238.36 152.85 238.62 152.97
  L 253.20 160.15
  Q 254.14 160.61 253.10 160.68
  Z
  M 16.69 154.34
  L 14.61 154.27
  Q 14.03 154.25 14.22 154.80
  Q 14.70 156.17 15.96 157.11
  L 18.35 161.00
  Q 18.92 161.57 19.21 162.21
  Q 19.42 162.86 20.21 163.50
  L 24.77 170.34
  A 1.21 1.20 -45.6 0 1 24.78 171.65
  L 22.18 175.66
  Q 21.29 176.41 21.20 177.26
  Q 19.53 178.71 18.73 180.87
  Q 17.41 182.25 16.68 183.89
  Q 15.18 185.23 14.30 187.22
  Q 14.08 187.70 14.62 187.70
  L 19.27 187.70
  Q 20.13 187.94 21.22 187.64
  L 30.85 187.53
  Q 31.78 187.77 32.72 187.63
  L 42.06 187.62
  Q 43.03 187.82 44.20 187.60
  L 53.46 187.64
  L 55.71 187.61
  L 62.08 187.60
  Q 62.89 188.13 63.96 187.59
  L 66.23 187.82
  Q 66.73 187.87 66.68 187.37
  L 66.17 181.67
  Q 66.51 180.96 66.18 180.30
  Q 66.60 178.35 66.03 176.89
  Q 66.59 176.05 66.24 175.29
  L 66.13 168.03
  Q 66.31 167.35 66.18 166.73
  Q 66.53 164.97 66.11 163.46
  Q 66.55 162.56 66.11 161.96
  Q 66.73 158.16 65.89 154.36
  L 62.33 154.38
  L 57.31 154.38
  L 50.87 154.37
  L 44.18 154.48
  Q 42.83 154.13 41.11 154.36
  L 32.72 154.36
  L 29.56 154.34
  L 22.87 154.35
  L 16.69 154.34
  Z
  M 277.73 154.38
  L 274.54 154.36
  L 267.88 154.35
  Q 266.02 154.03 265.93 154.66
  Q 265.22 158.30 265.92 161.85
  Q 265.59 162.45 265.75 163.45
  L 265.69 166.76
  L 265.76 177.23
  Q 265.39 178.96 265.84 180.09
  L 265.52 186.24
  Q 265.49 186.84 264.89 186.86
  Q 264.62 186.87 264.47 187.16
  Q 264.24 187.63 264.74 187.78
  Q 265.41 187.99 266.15 187.68
  L 275.51 187.71
  L 277.68 187.65
  L 287.06 187.62
  Q 288.02 187.85 288.95 187.64
  L 298.51 187.69
  Q 299.62 187.86 300.46 187.59
  Q 303.69 188.08 306.96 187.46
  Q 307.60 187.90 309.01 187.65
  Q 310.72 187.98 312.08 187.55
  Q 312.94 188.10 314.00 187.65
  L 316.22 187.76
  Q 316.78 187.78 316.56 187.26
  Q 315.70 185.19 313.98 183.42
  Q 313.06 181.56 311.78 180.33
  Q 311.22 178.59 309.71 176.99
  L 306.87 173.09
  L 306.06 171.41
  Q 305.83 170.93 306.12 170.47
  L 310.69 163.45
  L 313.97 158.62
  L 316.59 154.96
  Q 316.92 154.50 316.38 154.36
  Q 314.95 153.97 313.56 154.43
  L 307.25 154.41
  L 302.21 154.36
  L 295.84 154.30
  L 288.97 154.28
  L 286.06 154.33
  L 277.73 154.38
  Z"
/>
<path fill="#ffffff" d="
  M 214.52 159.50
  L 208.00 159.50
  Q 207.75 159.50 207.75 159.25
  L 207.76 155.25
  A 0.25 0.24 -90.0 0 1 208.00 155.00
  L 219.04 155.00
  Q 219.59 155.00 219.59 155.55
  L 219.58 169.82
  A 1.88 1.86 -27.9 0 1 219.25 170.88
  Q 215.99 175.60 210.19 176.35
  C 200.21 177.64 194.53 169.85 194.08 160.72
  Q 193.73 153.57 194.29 147.09
  C 194.91 139.99 200.15 132.88 207.95 133.54
  Q 218.49 134.44 219.47 146.00
  Q 219.49 146.23 219.25 146.23
  L 215.32 146.23
  Q 215.09 146.23 215.06 146.00
  Q 214.44 139.94 209.71 138.39
  C 203.61 136.39 199.38 141.93 198.85 147.28
  Q 198.31 152.65 198.51 159.27
  C 198.67 164.70 200.75 170.89 206.60 171.88
  Q 211.00 172.63 214.47 169.73
  Q 215.05 169.24 215.05 168.48
  L 215.06 160.04
  Q 215.06 159.50 214.52 159.50
  Z"
/>
<path fill="#ffffff" d="
  M 128.26 153.62
  Q 131.25 154.80 132.58 157.70
  C 135.72 164.53 133.93 174.82 124.90 175.78
  Q 120.57 176.23 111.10 175.94
  Q 110.62 175.93 110.62 175.45
  L 110.62 134.71
  Q 110.62 133.98 111.35 133.98
  Q 116.26 133.98 121.41 134.03
  Q 131.89 134.13 132.64 144.07
  Q 133.08 149.97 128.20 152.99
  Q 127.60 153.36 128.26 153.62
  Z
  M 115.16 138.90
  L 115.18 151.16
  A 0.38 0.38 0.0 0 0 115.56 151.54
  L 122.38 151.53
  A 5.92 5.80 89.9 0 0 128.17 145.60
  L 128.17 144.42
  A 5.92 5.80 89.9 0 0 122.36 138.51
  L 115.54 138.52
  A 0.38 0.38 0.0 0 0 115.16 138.90
  Z
  M 115.17 156.39
  L 115.17 171.09
  A 0.44 0.44 0.0 0 0 115.61 171.53
  L 123.22 171.53
  A 6.48 6.25 -90.0 0 0 129.47 165.05
  L 129.47 162.43
  A 6.48 6.25 90.0 0 0 123.22 155.95
  L 115.61 155.95
  A 0.44 0.44 0.0 0 0 115.17 156.39
  Z"
/>
<path fill="#ffffff" d="
  M 152.87 134.42
  A 0.52 0.52 0.0 0 1 153.39 133.90
  L 162.85 133.90
  A 16.64 14.76 -90.0 0 1 177.61 150.54
  L 177.61 159.44
  A 16.64 14.76 -90.0 0 1 162.85 176.08
  L 153.39 176.08
  A 0.52 0.52 0.0 0 1 152.87 175.56
  L 152.87 134.42
  Z
  M 157.43 138.94
  L 157.43 171.06
  A 0.53 0.53 0.0 0 0 157.96 171.59
  L 162.85 171.59
  A 12.30 10.24 90.0 0 0 173.09 159.29
  L 173.09 150.71
  A 12.30 10.24 90.0 0 0 162.85 138.41
  L 157.96 138.41
  A 0.53 0.53 0.0 0 0 157.43 138.94
  Z"
/>
<path fill="#242085" d="
  M 115.16 138.90
  A 0.38 0.38 0.0 0 1 115.54 138.52
  L 122.36 138.51
  A 5.92 5.80 89.9 0 1 128.17 144.42
  L 128.17 145.60
  A 5.92 5.80 89.9 0 1 122.38 151.53
  L 115.56 151.54
  A 0.38 0.38 0.0 0 1 115.18 151.16
  L 115.16 138.90
  Z"
/>
<path fill="#242085" d="
  M 157.43 138.94
  A 0.53 0.53 0.0 0 1 157.96 138.41
  L 162.85 138.41
  A 12.30 10.24 -90.0 0 1 173.09 150.71
  L 173.09 159.29
  A 12.30 10.24 90.0 0 1 162.85 171.59
  L 157.96 171.59
  A 0.53 0.53 0.0 0 1 157.43 171.06
  L 157.43 138.94
  Z"
/>
<path fill="#ffffff" d="
  M 77.58 160.72
  Q 78.34 160.86 79.00 161.19
  Q 85.23 164.30 91.47 167.57
  Q 91.60 167.65 91.60 167.80
  L 91.60 173.22
  A 0.14 0.13 15.7 0 1 91.39 173.33
  L 74.44 163.40
  A 3.58 3.58 0.0 0 1 74.44 157.22
  L 91.31 147.34
  Q 91.56 147.19 91.57 147.49
  L 91.64 152.72
  Q 91.65 153.01 91.39 153.14
  L 77.53 160.37
  Q 77.05 160.62 77.58 160.72
  Z"
/>
<path fill="#ffffff" d="
  M 253.10 160.68
  Q 254.14 160.61 253.20 160.15
  L 238.62 152.97
  Q 238.36 152.85 238.36 152.56
  L 238.37 147.42
  A 0.15 0.15 0.0 0 1 238.60 147.29
  L 257.53 157.87
  Q 258.00 158.13 258.01 158.68
  L 258.01 161.82
  Q 258.01 162.48 257.43 162.81
  L 238.59 173.34
  A 0.14 0.13 75.7 0 1 238.39 173.22
  L 238.37 168.02
  Q 238.37 167.78 238.59 167.67
  Q 245.28 164.30 251.83 161.02
  Q 252.42 160.73 253.10 160.68
  Z"
/>
<path fill="#ffffff" d="
  M 22.87 154.35
  Q 23.52 157.51 23.21 160.64
  C 23.02 162.55 21.94 163.17 20.21 163.50
  Q 19.42 162.86 19.21 162.21
  Q 20.18 162.13 20.81 161.78
  A 0.91 0.89 -15.0 0 0 21.27 161.00
  L 21.26 155.84
  Q 21.26 154.90 20.34 154.71
  L 19.52 154.53
  A 1.05 1.05 0.0 0 0 18.24 155.58
  L 18.35 161.00
  L 15.96 157.11
  Q 15.97 155.46 16.69 154.34
  L 22.87 154.35
  Z"
/>
<path fill="#cdcdcd" d="
  M 65.89 154.36
  L 64.47 154.84
  Q 63.99 155.00 63.99 155.50
  L 64.00 161.03
  Q 64.00 161.55 64.45 161.80
  Q 65.10 162.16 66.11 161.96
  Q 66.55 162.56 66.11 163.46
  Q 63.88 163.70 62.39 162.20
  Q 62.02 161.83 62.04 161.31
  L 62.33 154.38
  L 65.89 154.36
  Z"
/>
<path fill="#ffffff" d="
  M 313.56 154.43
  Q 314.24 155.95 313.97 158.62
  L 310.69 163.45
  Q 307.56 163.59 307.00 161.25
  Q 306.22 158.03 307.25 154.41
  L 313.56 154.43
  Z
  M 312.0253 155.6173
  A 1.07 1.07 0.0 0 0 310.9535 154.5492
  L 310.0335 154.5508
  A 1.07 1.07 0.0 0 0 308.9653 155.6227
  L 308.9747 160.9627
  A 1.07 1.07 0.0 0 0 310.0465 162.0308
  L 310.9665 162.0292
  A 1.07 1.07 0.0 0 0 312.0347 160.9573
  L 312.0253 155.6173
  Z"
/>
<path fill="#ffffff" d="
  M 32.72 154.36
  L 32.74 161.46
  Q 32.74 162.07 33.35 162.04
  Q 34.12 162.00 34.62 162.57
  A 0.55 0.55 0.0 0 1 34.21 163.48
  L 28.10 163.49
  A 0.41 0.40 -88.6 0 1 27.70 163.06
  L 27.71 162.80
  Q 27.75 162.09 28.46 162.07
  L 30.24 162.00
  Q 30.73 161.98 30.74 161.49
  L 30.81 156.20
  Q 30.82 155.67 30.34 155.90
  L 28.66 156.72
  Q 28.29 156.90 27.97 156.63
  Q 27.62 156.34 27.72 155.90
  Q 27.80 155.57 28.06 155.34
  Q 28.67 154.82 29.56 154.34
  L 32.72 154.36
  Z"
/>
<path fill="#ffffff" d="
  M 44.18 154.48
  L 44.21 161.47
  Q 44.21 162.13 44.87 162.02
  Q 45.75 161.87 46.12 162.64
  A 0.57 0.57 0.0 0 1 45.61 163.46
  L 39.49 163.51
  Q 39.22 163.51 39.24 163.24
  L 39.28 162.34
  Q 39.29 162.23 39.39 162.20
  Q 40.45 161.92 41.44 162.04
  Q 42.04 162.11 42.04 161.50
  L 42.02 156.50
  Q 42.01 155.33 41.18 156.15
  Q 40.60 156.73 39.91 156.69
  Q 39.01 156.65 39.29 155.74
  Q 39.53 154.92 41.11 154.36
  Q 42.83 154.13 44.18 154.48
  Z"
/>
<path fill="#ffffff" d="
  M 57.31 154.38
  Q 58.04 157.37 57.65 160.51
  C 57.18 164.32 51.89 164.55 50.55 161.27
  Q 49.88 159.62 50.87 154.37
  L 57.31 154.38
  Z
  M 55.7315 155.8343
  A 1.29 1.29 0.0 0 0 54.4370 154.5488
  L 53.7570 154.5512
  A 1.29 1.29 0.0 0 0 52.4715 155.8457
  L 52.4885 160.7257
  A 1.29 1.29 0.0 0 0 53.7830 162.0112
  L 54.4630 162.0088
  A 1.29 1.29 0.0 0 0 55.7485 160.7143
  L 55.7315 155.8343
  Z"
/>
<path fill="#cdcdcd" d="
  M 267.88 154.35
  Q 268.46 157.33 268.27 160.35
  C 268.17 162.09 267.26 162.88 265.75 163.45
  Q 265.59 162.45 265.92 161.85
  Q 266.74 158.28 265.93 154.66
  Q 266.02 154.03 267.88 154.35
  Z"
/>
<path fill="#ffffff" d="
  M 277.73 154.38
  L 277.74 161.45
  Q 277.74 162.14 278.42 162.01
  Q 278.98 161.91 279.29 162.38
  Q 279.94 163.38 278.75 163.44
  Q 276.04 163.57 273.59 163.47
  Q 271.56 163.39 273.19 162.18
  Q 273.72 161.79 274.98 162.00
  A 0.46 0.45 -85.3 0 0 275.51 161.54
  L 275.51 156.50
  Q 275.52 155.49 274.72 156.12
  Q 274.04 156.66 273.12 156.77
  A 0.25 0.25 0.0 0 1 272.86 156.60
  L 272.75 156.22
  A 0.83 0.82 -25.1 0 1 273.09 155.29
  L 274.54 154.36
  L 277.73 154.38
  Z"
/>
<path fill="#ffffff" d="
  M 288.97 154.28
  L 288.99 161.47
  Q 288.99 161.98 289.50 162.03
  L 290.60 162.14
  Q 291.41 162.21 291.01 162.93
  Q 290.93 163.08 290.85 163.23
  Q 290.72 163.49 290.44 163.49
  L 284.74 163.50
  Q 284.44 163.50 284.24 163.26
  Q 284.02 163.00 284.12 162.66
  A 0.74 0.71 -88.2 0 1 284.63 162.16
  Q 285.50 161.93 286.42 162.04
  Q 287.03 162.11 287.03 161.50
  L 287.04 156.27
  Q 287.04 155.28 286.35 155.99
  Q 286.12 156.23 285.82 156.40
  Q 283.75 157.54 284.26 155.30
  Q 284.32 155.07 286.06 154.33
  L 288.97 154.28
  Z"
/>
<path fill="#ffffff" d="
  M 295.84 154.30
  L 302.21 154.36
  Q 303.03 156.96 302.82 159.78
  Q 302.49 164.10 297.78 163.35
  A 2.65 2.64 0.3 0 1 295.59 161.14
  Q 295.13 158.11 295.84 154.30
  Z
  M 300.5344 155.5479
  A 0.98 0.98 0.0 0 0 299.5595 154.5628
  L 298.4995 154.5573
  A 0.98 0.98 0.0 0 0 297.5144 155.5321
  L 297.4856 161.0321
  A 0.98 0.98 0.0 0 0 298.4605 162.0172
  L 299.5205 162.0227
  A 0.98 0.98 0.0 0 0 300.5056 161.0479
  L 300.5344 155.5479
  Z"
/>
<path fill="#242085" d="
  M 115.17 156.39
  A 0.44 0.44 0.0 0 1 115.61 155.95
  L 123.22 155.95
  A 6.48 6.25 90.0 0 1 129.47 162.43
  L 129.47 165.05
  A 6.48 6.25 90.0 0 1 123.22 171.53
  L 115.61 171.53
  A 0.44 0.44 0.0 0 1 115.17 171.09
  L 115.17 156.39
  Z"
/>
<path fill="#ffffff" d="
  M 41.39 169.52
  Q 40.64 170.42 39.59 170.21
  A 0.62 0.62 0.0 0 1 39.34 169.10
  L 42.54 166.73
  A 1.06 1.06 0.0 0 1 44.23 167.58
  L 44.24 174.80
  Q 44.24 175.52 44.96 175.56
  Q 45.59 175.60 45.99 176.09
  Q 46.52 176.73 45.72 176.93
  Q 42.76 177.68 39.60 176.95
  Q 38.56 176.70 39.35 175.98
  Q 40.04 175.34 41.04 175.56
  Q 42.04 175.79 42.03 174.77
  L 42.02 169.75
  Q 42.02 168.77 41.39 169.52
  Z"
/>
<path fill="#ffffff" d="
  M 52.80 169.70
  Q 52.06 170.39 51.15 170.20
  Q 50.00 169.95 50.86 169.14
  Q 52.41 167.67 54.26 166.67
  A 1.00 0.99 75.8 0 1 55.73 167.55
  L 55.74 175.03
  A 0.57 0.56 -2.8 0 0 56.36 175.59
  Q 57.03 175.53 57.44 176.00
  Q 58.11 176.76 57.12 176.96
  Q 53.80 177.64 51.34 177.03
  Q 50.07 176.72 51.09 175.90
  Q 51.88 175.28 52.77 175.55
  Q 53.51 175.77 53.51 174.99
  L 53.52 170.01
  Q 53.52 169.02 52.80 169.70
  Z"
/>
<path fill="#ffffff" d="
  M 66.18 166.73
  Q 66.31 167.35 66.13 168.03
  Q 65.11 168.01 64.43 168.41
  A 0.98 0.98 0.0 0 0 63.97 169.22
  L 63.97 174.58
  A 0.90 0.90 0.0 0 0 64.46 175.38
  Q 65.20 175.76 66.24 175.29
  Q 66.59 176.05 66.03 176.89
  C 60.72 177.92 62.07 171.72 62.03 168.96
  A 1.28 1.24 -25.8 0 1 62.34 168.11
  Q 63.80 166.41 66.18 166.73
  Z"
/>
<path fill="#ffffff" d="
  M 286.54 169.36
  Q 285.62 170.58 284.32 170.10
  A 0.56 0.56 0.0 0 1 284.19 169.12
  L 287.78 166.58
  A 0.76 0.76 0.0 0 1 288.98 167.20
  L 288.97 174.98
  Q 288.97 175.64 289.63 175.58
  Q 290.59 175.50 291.11 176.20
  A 0.45 0.45 0.0 0 1 290.86 176.91
  Q 287.78 177.68 284.48 176.96
  A 0.54 0.54 0.0 0 1 284.28 175.99
  Q 285.23 175.33 286.29 175.57
  Q 287.04 175.74 287.03 174.98
  L 287.03 169.52
  Q 287.02 168.71 286.54 169.36
  Z"
/>
<path fill="#ffffff" d="
  M 301.14 175.53
  Q 301.48 175.47 301.79 175.62
  Q 303.74 176.57 301.62 177.03
  Q 298.84 177.64 296.13 176.97
  Q 294.90 176.67 295.93 175.94
  Q 296.77 175.35 297.79 175.56
  Q 298.51 175.71 298.51 174.97
  L 298.52 170.00
  Q 298.52 169.00 297.79 169.68
  Q 297.17 170.24 296.32 170.17
  Q 294.92 170.06 295.92 169.07
  Q 297.30 167.72 299.13 166.69
  A 0.92 0.91 75.4 0 1 300.49 167.49
  L 300.49 174.99
  Q 300.49 175.64 301.14 175.53
  Z"
/>
<path fill="#ffffff" d="
  M 34.7576 174.0074
  A 2.96 2.96 0.0 0 1 31.8079 176.9777
  L 30.5079 176.9822
  A 2.96 2.96 0.0 0 1 27.5376 174.0326
  L 27.5224 169.6926
  A 2.96 2.96 0.0 0 1 30.4721 166.7223
  L 31.7721 166.7178
  A 2.96 2.96 0.0 0 1 34.7424 169.6674
  L 34.7576 174.0074
  Z
  M 32.7723 169.4586
  A 1.37 1.37 0.0 0 0 31.4095 168.0814
  L 30.8895 168.0787
  A 1.37 1.37 0.0 0 0 29.5124 169.4415
  L 29.4877 174.1614
  A 1.37 1.37 0.0 0 0 30.8505 175.5386
  L 31.3705 175.5413
  A 1.37 1.37 0.0 0 0 32.7476 174.1785
  L 32.7723 169.4586
  Z"
/>
<path fill="#cdcdcd" d="
  M 265.69 166.76
  Q 266.26 166.94 266.25 167.51
  Q 266.19 171.27 266.27 174.88
  Q 266.28 175.52 266.91 175.57
  Q 267.51 175.62 267.96 176.02
  Q 268.48 176.47 267.90 176.82
  Q 267.05 177.34 265.76 177.23
  L 265.69 166.76
  Z"
/>
<path fill="#cdcdcd" d="
  M 279.7346 174.0753
  A 2.94 2.94 0.0 0 1 276.7741 176.9947
  L 275.3941 176.9851
  A 2.94 2.94 0.0 0 1 272.4747 174.0246
  L 272.5054 169.6247
  A 2.94 2.94 0.0 0 1 275.4659 166.7053
  L 276.8459 166.7149
  A 2.94 2.94 0.0 0 1 279.7653 169.6754
  L 279.7346 174.0753
  Z
  M 277.7314 169.3644
  A 1.22 1.22 0.0 0 0 276.5072 168.1486
  L 275.7072 168.1514
  A 1.22 1.22 0.0 0 0 274.4914 169.3757
  L 274.5086 174.2956
  A 1.22 1.22 0.0 0 0 275.7328 175.5114
  L 276.5328 175.5086
  A 1.22 1.22 0.0 0 0 277.7486 174.2843
  L 277.7314 169.3644
  Z"
/>
<path fill="#ffffff" d="
  M 306.87 173.09
  L 309.71 176.99
  Q 306.40 176.30 306.87 173.09
  Z"
/>
<path fill="#ffffff" d="
  M 22.18 175.66
  Q 22.90 175.91 23.09 176.32
  Q 23.33 176.84 22.77 176.95
  L 21.20 177.26
  Q 21.29 176.41 22.18 175.66
  Z"
/>
<path fill="#ffffff" d="
  M 21.22 187.64
  Q 20.13 187.94 19.27 187.70
  L 19.22 183.30
  Q 19.22 182.81 18.81 183.09
  Q 17.77 183.79 16.68 183.89
  Q 17.41 182.25 18.73 180.87
  L 20.27 180.27
  A 0.71 0.71 0.0 0 1 21.23 180.93
  L 21.22 187.64
  Z"
/>
<path fill="#ffffff" d="
  M 32.72 187.63
  Q 31.78 187.77 30.85 187.53
  L 30.83 183.57
  Q 30.83 182.76 30.13 183.16
  L 28.81 183.92
  A 0.68 0.67 43.7 0 1 28.18 183.93
  Q 27.44 183.56 27.84 182.77
  A 1.21 1.20 86.4 0 1 28.19 182.37
  L 31.20 180.29
  A 0.97 0.97 0.0 0 1 32.72 181.09
  L 32.72 187.63
  Z"
/>
<path fill="#ffffff" d="
  M 44.20 187.60
  Q 43.03 187.82 42.06 187.62
  L 41.95 183.34
  Q 41.93 182.49 41.41 183.16
  Q 40.78 183.96 39.79 183.80
  Q 38.65 183.61 39.43 182.76
  Q 40.71 181.35 42.76 180.31
  A 0.99 0.99 0.0 0 1 44.20 181.19
  L 44.20 187.60
  Z"
/>
<path fill="#ffffff" d="
  M 55.71 187.61
  L 53.46 187.64
  L 53.51 183.45
  Q 53.52 182.44 52.82 183.16
  Q 52.32 183.67 51.55 183.97
  Q 51.13 184.13 50.88 183.76
  L 50.71 183.50
  Q 50.34 182.95 50.88 182.56
  L 53.92 180.39
  A 1.12 1.12 0.0 0 1 55.69 181.29
  L 55.71 187.61
  Z"
/>
<path fill="#cdcdcd" d="
  M 66.18 180.30
  Q 66.51 180.96 66.17 181.67
  L 64.61 181.91
  Q 64.07 181.99 64.06 182.53
  L 63.96 187.59
  Q 62.89 188.13 62.08 187.60
  L 62.08 182.37
  A 1.24 1.22 66.6 0 1 62.40 181.54
  Q 63.87 179.89 66.18 180.30
  Z"
/>
<path fill="#cdcdcd" d="
  M 265.84 180.09
  L 266.15 187.68
  Q 265.41 187.99 264.74 187.78
  Q 264.24 187.63 264.47 187.16
  Q 264.62 186.87 264.89 186.86
  Q 265.49 186.84 265.52 186.24
  L 265.84 180.09
  Z"
/>
<path fill="#cdcdcd" d="
  M 277.68 187.65
  L 275.51 187.71
  L 275.55 183.61
  Q 275.56 182.95 274.97 183.24
  L 273.72 183.82
  A 0.58 0.58 0.0 0 1 273.36 183.88
  Q 272.50 183.79 272.60 183.03
  A 0.57 0.55 76.0 0 1 272.82 182.65
  L 276.11 180.29
  A 1.01 1.00 -17.9 0 1 277.70 181.10
  L 277.68 187.65
  Z"
/>
<path fill="#ffffff" d="
  M 288.95 187.64
  Q 288.02 187.85 287.06 187.62
  L 286.96 183.27
  Q 286.95 182.46 286.40 183.06
  Q 285.82 183.70 284.82 183.92
  A 0.61 0.60 77.9 0 1 284.11 183.45
  Q 283.98 182.81 284.53 182.41
  Q 286.05 181.30 287.63 180.30
  A 0.86 0.86 0.0 0 1 288.95 181.03
  L 288.95 187.64
  Z"
/>
<path fill="#cdcdcd" d="
  M 300.46 187.59
  Q 299.62 187.86 298.51 187.69
  L 298.48 183.44
  Q 298.48 182.45 297.78 183.15
  Q 297.31 183.62 296.69 183.92
  A 0.75 0.74 59.1 0 1 295.76 183.68
  L 295.53 183.36
  A 0.45 0.44 -36.7 0 1 295.63 182.74
  L 298.97 180.26
  A 0.92 0.92 0.0 0 1 300.44 180.99
  L 300.46 187.59
  Z"
/>
<path fill="#ffffff" d="
  M 311.78 180.33
  Q 313.06 181.56 313.98 183.42
  L 314.00 187.65
  Q 312.94 188.10 312.08 187.55
  L 312.03 182.81
  Q 312.02 181.74 310.95 181.74
  L 309.99 181.73
  Q 308.94 181.73 308.95 182.78
  L 309.01 187.65
  Q 307.60 187.90 306.96 187.46
  Q 305.43 179.32 311.78 180.33
  Z"
/>
<path fill="#cdcdcd" d="
  M 134.75 206.78
  L 132.22 204.16
  L 134.42 203.95
  Q 135.00 203.90 135.00 203.32
  L 135.00 193.30
  Q 135.00 192.41 134.35 193.02
  L 133.53 193.81
  A 1.07 1.05 17.3 0 1 133.04 194.06
  Q 131.52 194.34 131.15 193.54
  Q 130.75 192.68 131.43 192.00
  L 135.42 187.98
  A 1.36 1.36 0.0 0 1 137.75 188.94
  L 137.75 203.47
  Q 137.75 204.30 138.54 204.04
  Q 140.17 203.51 140.47 205.10
  A 1.33 1.33 0.0 0 1 139.20 206.68
  L 134.75 206.78
  Z"
/>
<path fill="#cdcdcd" d="
  M 155.4887 202.0718
  A 4.47 4.47 0.0 0 1 151.0265 206.5496
  L 150.5465 206.5504
  A 4.47 4.47 0.0 0 1 146.0687 202.0882
  L 146.0513 192.1082
  A 4.47 4.47 0.0 0 1 150.5135 187.6304
  L 150.9935 187.6296
  A 4.47 4.47 0.0 0 1 155.4713 192.0918
  L 155.4887 202.0718
  Z
  M 152.7514 192.1665
  A 1.87 1.87 0.0 0 0 150.8781 190.2998
  L 150.6181 190.3002
  A 1.87 1.87 0.0 0 0 148.7514 192.1735
  L 148.7686 202.0335
  A 1.87 1.87 0.0 0 0 150.6419 203.9002
  L 150.9019 203.8998
  A 1.87 1.87 0.0 0 0 152.7686 202.0265
  L 152.7514 192.1665
  Z"
/>
<path fill="#cdcdcd" d="
  M 164.72 192.61
  L 163.60 193.78
  Q 162.85 194.55 161.87 194.11
  Q 161.55 193.97 161.34 193.70
  A 1.14 1.13 -41.4 0 1 161.44 192.20
  L 165.90 187.77
  A 0.88 0.88 0.0 0 1 166.91 187.61
  Q 167.97 188.14 167.97 189.32
  Q 168.03 196.16 167.99 203.44
  Q 167.99 204.28 168.78 204.03
  Q 169.90 203.68 170.38 204.66
  A 1.40 1.39 75.4 0 1 169.21 206.66
  Q 166.02 206.84 162.84 206.71
  Q 161.85 206.67 161.31 205.85
  A 1.20 1.19 -16.8 0 1 162.31 204.00
  L 164.75 204.00
  A 0.50 0.50 0.0 0 0 165.25 203.50
  L 165.25 192.83
  Q 165.26 192.07 164.72 192.61
  Z"
/>
<path fill="#cdcdcd" d="
  M 179.63 192.70
  L 178.55 193.82
  Q 177.93 194.47 177.08 194.19
  Q 176.50 194.01 176.25 193.44
  A 1.15 1.14 55.5 0 1 176.48 192.18
  L 180.67 187.98
  A 1.36 1.36 0.0 0 1 183.00 188.94
  L 183.00 203.49
  Q 183.00 204.24 183.72 204.02
  Q 184.68 203.72 185.29 204.48
  A 1.39 1.38 70.4 0 1 184.22 206.74
  L 177.82 206.75
  Q 176.45 206.76 176.22 205.40
  Q 176.17 205.13 176.26 204.84
  Q 176.51 204.00 177.39 204.00
  L 179.63 204.00
  Q 180.25 204.00 180.25 203.37
  L 180.25 192.95
  Q 180.25 192.06 179.63 192.70
  Z"
/>
<path fill="#cdcdcd" d="
  M 200.76 201.90
  L 196.47 206.52
  C 193.55 206.73 191.14 204.77 191.21 201.85
  Q 191.32 197.30 191.21 192.55
  C 191.13 189.38 193.91 187.01 197.02 187.76
  C 200.10 188.51 200.69 190.94 200.73 193.77
  Q 200.77 197.73 200.76 201.90
  Z
  M 198.0071 192.2270
  A 1.92 1.92 0.0 0 0 196.0938 190.3003
  L 195.9338 190.2998
  A 1.92 1.92 0.0 0 0 194.0071 192.2130
  L 193.9729 201.9930
  A 1.92 1.92 0.0 0 0 195.8862 203.9197
  L 196.0462 203.9202
  A 1.92 1.92 0.0 0 0 197.9729 202.0070
  L 198.0071 192.2270
  Z"
/>
<path fill="#0900cd" d="
  M 132.22 204.16
  L 134.75 206.78
  L 150.43 224.18
  L 152.72 226.70
  L 165.16 240.41
  Q 165.50 240.78 165.83 240.41
  L 180.29 224.40
  L 183.06 221.32
  L 196.47 206.52
  L 200.76 201.90
  L 209.09 192.83
  A 1.01 0.99 -68.5 0 1 209.83 192.50
  L 235.18 192.50
  Q 235.57 192.50 235.30 192.78
  Q 234.91 193.16 234.56 193.55
  Q 203.14 227.61 166.46 268.47
  Q 166.15 268.82 165.89 269.20
  Q 165.60 269.62 165.26 269.24
  L 95.83 192.60
  Q 95.74 192.50 95.87 192.50
  L 121.07 192.50
  Q 121.58 192.50 121.93 192.88
  L 132.22 204.16
  Z"
/>
<path fill="#cdcdcd" d="
  M 152.72 226.70
  L 150.43 224.18
  L 150.24 217.25
  Q 150.22 216.60 149.77 217.07
  L 148.48 218.40
  Q 147.66 219.25 146.66 218.62
  Q 146.25 218.36 146.07 217.84
  A 0.96 0.96 0.0 0 1 146.31 216.85
  L 150.59 212.56
  A 1.26 1.26 0.0 0 1 152.74 213.45
  L 152.72 226.70
  Z"
/>
<path fill="#cdcdcd" d="
  M 164.75 217.12
  L 163.15 218.68
  Q 162.62 219.20 161.96 218.86
  Q 161.41 218.59 161.16 217.97
  A 1.12 1.11 -33.9 0 1 161.40 216.75
  L 165.45 212.69
  A 1.50 1.49 67.5 0 1 168.00 213.75
  L 168.00 227.99
  A 0.60 0.60 0.0 0 0 168.80 228.56
  Q 169.26 228.39 169.71 228.56
  Q 170.45 228.82 170.54 229.59
  Q 170.62 230.28 170.17 230.78
  Q 169.74 231.26 169.07 231.26
  Q 165.70 231.27 162.62 231.22
  Q 161.35 231.20 161.09 229.96
  Q 161.05 229.78 161.09 229.60
  Q 161.35 228.52 162.46 228.51
  L 164.63 228.49
  Q 165.25 228.49 165.25 227.87
  L 165.25 217.34
  Q 165.25 216.63 164.75 217.12
  Z"
/>
<path fill="#cdcdcd" d="
  M 183.06 221.32
  L 180.29 224.40
  L 180.19 217.26
  Q 180.18 216.42 179.69 217.10
  Q 178.92 218.18 177.85 218.78
  Q 177.26 219.10 176.76 218.65
  C 176.06 218.02 176.01 217.07 176.70 216.41
  Q 178.71 214.46 180.52 212.64
  A 1.43 1.43 0.0 0 1 182.97 213.64
  L 183.06 221.32
  Z"
/>
</svg>
